<svg xmlns="http://www.w3.org/2000/svg" width="16" height="16" viewBox="0 0 16 16" fill="none">
  <g clip-path="url(#clip0_1_299)">
    <path d="M7.03225 8.96775C6.0426 7.9781 5.29656 6.87003 4.80088 5.74589C4.696 5.5082 4.75774 5.22991 4.9413 5.04636L5.63405 4.35445C6.20162 3.78688 6.20162 2.98417 5.70595 2.48849L4.71291 1.49546C4.0523 0.834847 2.98145 0.834847 2.32083 1.49546L1.76934 2.04696C1.14256 2.67374 0.881188 3.57796 1.05036 4.47456C1.46821 6.68478 2.75222 9.10478 4.82372 11.1763C6.89522 13.2478 9.31521 14.5318 11.5254 14.9496C12.422 15.1188 13.3263 14.8574 13.953 14.2307L14.5037 13.68C15.1643 13.0194 15.1643 11.9485 14.5037 11.2879L13.5115 10.2957C13.0158 9.80007 12.2123 9.80007 11.7174 10.2957L10.9536 11.0604C10.7701 11.2439 10.4918 11.3057 10.2541 11.2008C9.12997 10.7043 8.0219 9.9574 7.03225 8.96775Z" stroke="white" stroke-width="1.5" stroke-linecap="round" stroke-linejoin="round"/>
  </g>
  <defs>
    <clipPath id="clip0_1_299">
      <rect width="16" height="16" fill="white"/>
    </clipPath>
  </defs>
</svg>