<svg xmlns="http://www.w3.org/2000/svg" width="48" height="48" viewBox="0 0 48 48" fill="none">
  <circle cx="24" cy="24" r="24" fill="white"/>
  <path d="M20.3464 15.4916C20.0718 14.9667 20.0107 14.356 20.1758 13.7871C20.3408 13.2182 20.7192 12.7351 21.2321 12.4387C21.7449 12.1422 22.3525 12.0554 22.9279 12.1963C23.5032 12.3372 24.0018 12.695 24.3196 13.1949L27.7646 19.1548" stroke="#07040E" stroke-width="1.5" stroke-linecap="round" stroke-linejoin="round"/>
  <path d="M17.2926 19.3726L15.4552 16.1918C15.1807 15.6669 15.1195 15.0562 15.2846 14.4873C15.4496 13.9184 15.8281 13.4353 16.3409 13.1389C16.8538 12.8424 17.4613 12.7556 18.0367 12.8965C18.612 13.0374 19.1106 13.3952 19.4284 13.8951L23.3328 20.6588" stroke="#07040E" stroke-width="1.5" stroke-linecap="round" stroke-linejoin="round"/>
  <path d="M27.2364 27.4224C26.9338 26.9009 26.7372 26.3248 26.6577 25.7271C26.5782 25.1294 26.6175 24.5219 26.7732 23.9394C26.929 23.3569 27.1982 22.811 27.5653 22.3328C27.9325 21.8545 28.3905 21.4535 28.913 21.1526L27.7646 19.1544C27.4601 18.6261 27.3779 17.9983 27.5363 17.4093C27.6945 16.8203 28.0803 16.3183 28.6086 16.0138C29.137 15.7092 29.7648 15.6271 30.3538 15.7853C30.9428 15.9436 31.4448 16.3294 31.7494 16.8578L34.046 20.8425C35.2642 22.953 35.5941 25.4611 34.9631 27.8149C34.3321 30.1688 32.7919 32.1754 30.6814 33.3936C28.5708 34.6119 26.0627 34.9418 23.709 34.3108C21.3552 33.6798 19.3484 32.1396 18.1302 30.0291L13.3072 21.6693C13.1564 21.4077 13.0586 21.1189 13.0195 20.8194C12.9803 20.52 13.0004 20.2158 13.0788 19.9242C13.2371 19.3352 13.6229 18.8332 14.1513 18.5286C14.6797 18.2241 15.3074 18.1419 15.8964 18.3002C16.4854 18.4585 16.9874 18.8442 17.2919 19.3727L19.8182 23.7477" stroke="#07040E" stroke-width="1.5" stroke-linecap="round" stroke-linejoin="round"/>
  <path d="M18.8653 36.0002C17.305 34.9239 16.0061 33.5113 15.0644 31.8662" stroke="#07040E" stroke-width="1.5" stroke-linecap="round" stroke-linejoin="round"/>
  <path d="M29.763 12C30.8112 11.9972 31.8415 12.2719 32.7491 12.7963C33.6568 13.3207 34.4094 14.0761 34.9305 14.9857" stroke="#07040E" stroke-width="1.5" stroke-linecap="round" stroke-linejoin="round"/>
</svg>