<svg width="103" height="53" viewBox="0 0 103 53" fill="none" xmlns="http://www.w3.org/2000/svg">
<path d="M43.7615 50C43.7615 43.8115 45.7884 37.8767 49.3963 33.5008C53.0043 29.1249 57.8976 26.6667 63 26.6667M63 26.6667C60.4736 26.6667 57.9719 26.063 55.6377 24.8907C53.3036 23.7178 51.1828 21.999 49.3963 19.8325C47.6099 17.6656 46.1928 15.0934 45.226 12.2625C44.2591 9.43161 43.7615 6.39744 43.7615 3.33333M63 26.6667H3" stroke="#07040E" stroke-width="6" stroke-linecap="round" stroke-linejoin="round"/>
<path d="M76 49C76 42.8999 78.4419 37.0499 82.7886 32.7365C87.1353 28.4231 93.0307 26 99.1778 26C96.1341 26 93.1201 25.405 90.3081 24.2494C87.496 23.0933 84.9409 21.399 82.7886 19.2635C80.6364 17.1275 78.9291 14.592 77.7643 11.8016C76.5995 9.01116 76 6.02033 76 3" stroke="#07040E" stroke-width="6" stroke-linecap="round" stroke-linejoin="round"/>
</svg>
