<svg width="50" height="50" viewBox="0 0 50 50" fill="none" xmlns="http://www.w3.org/2000/svg">
<g clip-path="url(#clip0_1_558)">
<g clip-path="url(#clip1_1_558)">
<g clip-path="url(#clip2_1_558)">
<path d="M24.532 25.9681C23.5961 25.0408 22.8397 23.9484 22.301 22.7461C22.2512 22.6289 22.2379 22.4993 22.2629 22.3745C22.2879 22.2496 22.3499 22.1351 22.441 22.0461L23.134 21.3541C23.702 20.7871 23.702 19.9841 23.206 19.4881L22.213 18.4951C22.0559 18.338 21.8695 18.2133 21.6643 18.1283C21.4591 18.0433 21.2391 17.9995 21.017 17.9995C20.7948 17.9995 20.5749 18.0433 20.3697 18.1283C20.1645 18.2133 19.978 18.338 19.821 18.4951L19.269 19.0471C18.643 19.6741 18.381 20.5781 18.55 21.4751C18.968 23.6851 20.252 26.1051 22.324 28.1761C24.395 30.2481 26.815 31.5321 29.025 31.9501C29.922 32.1191 30.826 31.8571 31.453 31.2301L32.003 30.6801C32.1602 30.5231 32.2849 30.3367 32.37 30.1315C32.4551 29.9262 32.499 29.7062 32.499 29.4841C32.499 29.2619 32.4551 29.0419 32.37 28.8367C32.2849 28.6315 32.1602 28.445 32.003 28.2881L31.011 27.2961C30.8932 27.1782 30.7534 27.0847 30.5995 27.0209C30.4456 26.9571 30.2806 26.9243 30.114 26.9243C29.9474 26.9243 29.7824 26.9571 29.6285 27.0209C29.4746 27.0847 29.3347 27.1782 29.217 27.2961L28.454 28.0601C28.3649 28.1511 28.2505 28.2132 28.1256 28.2382C28.0007 28.2631 27.8712 28.2499 27.754 28.2001C26.5518 27.6607 25.4595 26.904 24.532 25.9681Z" stroke="#101010" stroke-width="1.5" stroke-linecap="round" stroke-linejoin="round"/>
</g>
</g>
<rect x="0.5" y="0.5" width="49" height="49" rx="11.5" stroke="#0F0F0F" stroke-opacity="0.2"/>
</g>
<defs>
<clipPath id="clip0_1_558">
<rect width="50" height="50" rx="12" fill="white"/>
</clipPath>
<clipPath id="clip1_1_558">
<rect width="16" height="16" fill="white" transform="translate(17.5 17)"/>
</clipPath>
<clipPath id="clip2_1_558">
<rect width="16" height="16" fill="white" transform="translate(17.5 17)"/>
</clipPath>
</defs>
</svg>
