<svg width="73" height="34" viewBox="0 0 73 34" fill="none" xmlns="http://www.w3.org/2000/svg">
<circle cx="17.0337" cy="17" r="17" fill="#111111"/>
<path d="M16.8215 25.216C15.9935 25.216 15.2855 25.054 14.6975 24.73C14.1095 24.406 13.6475 23.974 13.3115 23.434C12.9875 22.894 12.7895 22.306 12.7175 21.67H14.4995C14.6075 22.294 14.8655 22.774 15.2735 23.11C15.6815 23.446 16.2035 23.614 16.8395 23.614C17.7155 23.614 18.4355 23.206 18.9995 22.39C19.5755 21.562 19.8815 20.296 19.9175 18.592C19.6295 19.12 19.1795 19.57 18.5675 19.942C17.9675 20.314 17.2715 20.5 16.4795 20.5C15.7715 20.5 15.1055 20.332 14.4815 19.996C13.8575 19.66 13.3535 19.192 12.9695 18.592C12.5855 17.98 12.3935 17.26 12.3935 16.432C12.3935 15.7 12.5735 15.01 12.9335 14.362C13.2935 13.714 13.7975 13.192 14.4455 12.796C15.1055 12.388 15.8855 12.184 16.7855 12.184C17.7095 12.184 18.4895 12.358 19.1255 12.706C19.7615 13.054 20.2715 13.516 20.6555 14.092C21.0395 14.668 21.3155 15.316 21.4835 16.036C21.6635 16.756 21.7535 17.494 21.7535 18.25C21.7535 19.642 21.5555 20.86 21.1595 21.904C20.7755 22.948 20.2175 23.764 19.4855 24.352C18.7535 24.928 17.8655 25.216 16.8215 25.216ZM16.9115 18.862C17.4155 18.862 17.8655 18.748 18.2615 18.52C18.6575 18.292 18.9695 17.992 19.1975 17.62C19.4375 17.236 19.5575 16.816 19.5575 16.36C19.5575 15.868 19.4375 15.436 19.1975 15.064C18.9695 14.68 18.6515 14.38 18.2435 14.164C17.8475 13.948 17.3975 13.84 16.8935 13.84C16.3895 13.84 15.9395 13.948 15.5435 14.164C15.1475 14.38 14.8295 14.68 14.5895 15.064C14.3615 15.436 14.2475 15.862 14.2475 16.342C14.2475 17.11 14.4995 17.722 15.0035 18.178C15.5075 18.634 16.1435 18.862 16.9115 18.862Z" fill="white"/>
<circle cx="55.1994" cy="17" r="17" fill="#111111"/>
<path d="M54.9992 25.216C54.1592 25.216 53.3972 25.066 52.7132 24.766C52.0412 24.454 51.5012 24.022 51.0932 23.47C50.6972 22.918 50.4992 22.27 50.4992 21.526C50.4992 20.77 50.7092 20.092 51.1292 19.492C51.5612 18.892 52.1312 18.484 52.8392 18.268C52.2032 18.016 51.7112 17.65 51.3632 17.17C51.0152 16.678 50.8412 16.138 50.8412 15.55C50.8412 14.938 51.0032 14.38 51.3272 13.876C51.6512 13.36 52.1192 12.952 52.7312 12.652C53.3552 12.34 54.1112 12.184 54.9992 12.184C55.8872 12.184 56.6372 12.34 57.2492 12.652C57.8732 12.952 58.3472 13.36 58.6712 13.876C58.9952 14.38 59.1572 14.938 59.1572 15.55C59.1572 16.126 58.9772 16.666 58.6172 17.17C58.2692 17.662 57.7772 18.028 57.1412 18.268C57.8492 18.496 58.4132 18.91 58.8332 19.51C59.2652 20.098 59.4812 20.77 59.4812 21.526C59.4812 22.27 59.2832 22.918 58.8872 23.47C58.4912 24.022 57.9512 24.454 57.2672 24.766C56.5952 25.066 55.8392 25.216 54.9992 25.216ZM54.9992 17.656C55.6952 17.656 56.2412 17.476 56.6372 17.116C57.0452 16.756 57.2492 16.294 57.2492 15.73C57.2492 15.094 57.0512 14.608 56.6552 14.272C56.2592 13.936 55.7072 13.768 54.9992 13.768C54.2912 13.768 53.7392 13.936 53.3432 14.272C52.9472 14.608 52.7492 15.094 52.7492 15.73C52.7492 16.294 52.9472 16.756 53.3432 17.116C53.7392 17.476 54.2912 17.656 54.9992 17.656ZM54.9992 23.596C55.8632 23.596 56.5112 23.392 56.9432 22.984C57.3752 22.564 57.5912 22.03 57.5912 21.382C57.5912 20.662 57.3572 20.11 56.8892 19.726C56.4332 19.33 55.8032 19.132 54.9992 19.132C54.1952 19.132 53.5592 19.33 53.0912 19.726C52.6232 20.11 52.3892 20.662 52.3892 21.382C52.3892 22.03 52.6052 22.564 53.0372 22.984C53.4812 23.392 54.1352 23.596 54.9992 23.596Z" fill="white"/>
</svg>
