<svg xmlns="http://www.w3.org/2000/svg" width="11" height="8" viewBox="0 0 11 8" fill="none">
  <g clip-path="url(#clip0_1_171)">
    <path fill-rule="evenodd" clip-rule="evenodd" d="M0.809998 3.24996C0.611085 3.24996 0.42032 3.32898 0.279667 3.46963C0.139015 3.61028 0.0599976 3.80105 0.0599976 3.99996C0.0599976 4.19887 0.139015 4.38964 0.279667 4.53029C0.42032 4.67094 0.611085 4.74996 0.809998 4.74996H6.997L5.08 6.66896C5.00631 6.73762 4.94721 6.82042 4.90622 6.91242C4.86522 7.00442 4.84318 7.10373 4.84141 7.20444C4.83963 7.30514 4.85815 7.40517 4.89587 7.49856C4.9336 7.59194 4.98974 7.67678 5.06096 7.748C5.13218 7.81922 5.21701 7.87536 5.3104 7.91308C5.40379 7.9508 5.50382 7.96933 5.60452 7.96755C5.70522 7.96577 5.80454 7.94373 5.89654 7.90274C5.98854 7.86175 6.07134 7.80265 6.14 7.72896L9.308 4.56196C9.38634 4.49318 9.44945 4.40879 9.49326 4.3142C9.53707 4.2196 9.56063 4.1169 9.56242 4.01266C9.56421 3.90843 9.54419 3.80497 9.50365 3.70893C9.46311 3.61289 9.40294 3.52638 9.327 3.45496L6.139 0.269958C6.07034 0.196272 5.98753 0.137169 5.89554 0.0961773C5.80354 0.0551853 5.70422 0.0331435 5.60352 0.0313667C5.50282 0.0295899 5.40279 0.0481146 5.3094 0.0858356C5.21601 0.123557 5.13118 0.179701 5.05996 0.25092C4.98874 0.322139 4.9326 0.406973 4.89488 0.500361C4.85715 0.593749 4.83863 0.693778 4.84041 0.794481C4.84218 0.895184 4.86422 0.994497 4.90522 1.0865C4.94621 1.1785 5.00531 1.2613 5.079 1.32996L6.999 3.25096L0.809998 3.24996Z" fill="#FD5A1E"/>
  </g>
  <defs>
    <clipPath id="clip0_1_171">
      <rect width="10" height="8" fill="white" transform="translate(0.0599976)"/>
    </clipPath>
  </defs>
</svg>