<svg xmlns="http://www.w3.org/2000/svg" width="11" height="9" viewBox="0 0 11 9" fill="none">
  <g clip-path="url(#clip0_1_219)">
    <path fill-rule="evenodd" clip-rule="evenodd" d="M0.809998 3.74996C0.611085 3.74996 0.42032 3.82898 0.279667 3.96963C0.139015 4.11028 0.0599976 4.30105 0.0599976 4.49996C0.0599976 4.69887 0.139015 4.88964 0.279667 5.03029C0.42032 5.17094 0.611085 5.24996 0.809998 5.24996H6.997L5.08 7.16896C5.00631 7.23762 4.94721 7.32042 4.90622 7.41242C4.86522 7.50442 4.84318 7.60373 4.84141 7.70444C4.83963 7.80514 4.85815 7.90517 4.89587 7.99856C4.9336 8.09194 4.98974 8.17678 5.06096 8.248C5.13218 8.31922 5.21701 8.37536 5.3104 8.41308C5.40379 8.4508 5.50382 8.46933 5.60452 8.46755C5.70522 8.46577 5.80454 8.44373 5.89654 8.40274C5.98854 8.36175 6.07134 8.30265 6.14 8.22896L9.308 5.06196C9.38634 4.99318 9.44945 4.90879 9.49326 4.8142C9.53707 4.7196 9.56063 4.6169 9.56242 4.51266C9.56421 4.40843 9.54419 4.30497 9.50365 4.20893C9.46311 4.11289 9.40294 4.02638 9.327 3.95496L6.139 0.769958C6.07034 0.696272 5.98753 0.637169 5.89554 0.596177C5.80354 0.555185 5.70422 0.533144 5.60352 0.531367C5.50282 0.52959 5.40279 0.548115 5.3094 0.585836C5.21601 0.623557 5.13118 0.679701 5.05996 0.75092C4.98874 0.822139 4.9326 0.906973 4.89488 1.00036C4.85715 1.09375 4.83863 1.19378 4.84041 1.29448C4.84218 1.39518 4.86422 1.4945 4.90522 1.5865C4.94621 1.6785 5.00531 1.7613 5.079 1.82996L6.999 3.75096L0.809998 3.74996Z" fill="white"/>
  </g>
  <defs>
    <clipPath id="clip0_1_219">
      <rect width="10" height="8" fill="white" transform="translate(0.0599976 0.5)"/>
    </clipPath>
  </defs>
</svg>